# xmcd
#
# Track frame offsets: 
#        150
#        17777
#        36321
#        53850
#        65094
#        83742
#        98308
#        107374
#        122232
#        135759
#        149218
#        165840
#
# Disc length: 2486 seconds
#
# Revision: 2
# Processed by: cddbd v1.5.2PL0 Copyright (c) Steve Scherf et al.
# Submitted via: ExactAudioCopy v0.99pb5
#
DISCID=9709b40c
DTITLE=John Long - John Long "Lost and Found "
DYEAR=2006
DGENRE=acoustic blues
TTITLE0=Hokum Town
TTITLE1=Pressure Cooker ('Bout To Blow )
TTITLE2=Hell Cat
TTITLE3=Blues and Boogie Woogie
TTITLE4=Foot Stompin' Daddy
TTITLE5=Stranglevine
TTITLE6=Johnny's Jump
TTITLE7=Mean Ole Rootin' Ground Sloth
TTITLE8=Greyhound Driver
TTITLE9=Healin' Touch
TTITLE10=Leavin' St.Louis (Solo Version )
TTITLE11=Leavin' St.Louis (Piano Version )
EXTD=Deltagroove Productions
EXTT0=
EXTT1=
EXTT2=
EXTT3=
EXTT4=
EXTT5=
EXTT6=
EXTT7=
EXTT8=
EXTT9=
EXTT10=
EXTT11=
PLAYORDER=
